PathFileType	4	(X/Y/Z)	7_coords_data.trc
DataRate	CameraRate	NumFrames	NumMarkers	Units	OrigDataRate	OrigDataStartFrame	OrigNumFrames
30.0	30.0	6	21	m	30.0	1	47
Frame#	Time	THUMB_TIP	THUMB_IP	THUMB_MCP	THUMB_CMC	INDEX_TIP	INDEX_DIP	INDEX_PIP	INDEX_MCP	MIDDLE_TIP	MIDDLE_DIP	MIDDLE_PIP	MIDDLE_MCP	RING_TIP	RING_DIP	RING_PIP	RING_MCP	PINKY_TIP	PINKY_DIP	PINKY_PIP	PINKY_MCP	WRIST
X1	Y1	Z1	X2	Y2	Z2	X3	Y3	Z3	X4	Y4	Z4	X5	Y5	Z5	X6	Y6	Z6	X7	Y7	Z7	X8	Y8	Z8	X9	Y9	Z9	X10	Y10	Z10	X11	Y11	Z11	X12	Y12	Z12	X13	Y13	Z13	X14	Y14	Z14	X15	Y15	Z15	X16	Y16	Z16	X17	Y17	Z17	X18	Y18	Z18	X19	Y19	Z19	X20	Y20	Z20	X21	Y21	Z21
0	-2.749317978547796e-18	0.535999976997058	-0.0037911251048683425	-0.1136430326488225	0.5178705801145704	-0.011944207996619993	-0.1251691858682392	0.48916587824365776	-0.02003069926219969	-0.11625466123067554	0.4805575915437891	-0.028599722378237713	-0.07333194879390531	0.49719150567017256	-0.0031308567355328165	-0.11642764649710821	0.5141741459888644	-0.0023177728015347787	-0.12266694311789936	0.5261459088214242	0.019478466503918823	-0.12635620860310692	0.48943705929080794	0.03287683984470735	-0.10942753316882017	0.49682867147440535	-0.00961298539847466	-0.09933469991382518	0.5149171376219558	-0.010501983456435049	-0.0992040290223965	0.5357940920003471	0.009668580736776788	-0.10179452434377681	0.5034847753576671	0.03734431923646142	-0.088145001363829	0.5253848023207877	0.00013538032047089033	-0.09141703578319335	0.5175318266504043	-0.011837889040883232	-0.08046388126402276	0.5387709192850284	0.0011628428043941597	-0.0807126674072346	0.5167515942999839	0.03308438231471056	-0.06927214834146178	0.5052636513945219	-0.025573893067158293	-0.05729071171336675	0.5209025167526176	-0.028248888739185407	-0.06371490726347206	0.5384156216629662	-0.016689286683722826	-0.06302297105364713	0.5259454269051339	0.014378661611140209	-0.04960059114360671	0.4622830810018609	-0.023011742144276925	-0.051989820119430985
1	0.03333333333333339	0.5371902873363513	-0.003192095385432747	-0.11307053218667171	0.5191287753162976	-0.011259632901823857	-0.12476226524773146	0.4903795266240164	-0.019391212244659006	-0.11603425762740116	0.48025646997437565	-0.02861889087097491	-0.07358118151697543	0.4970887203284635	-0.0026486465020462147	-0.11582086827025767	0.5141571402349217	-0.0022828365098356285	-0.12186530579135296	0.526712235752624	0.01913950672821907	-0.1257975595639807	0.4899556182379875	0.03283863489773842	-0.10921681620676646	0.497499579228717	-0.011086773320967969	-0.09965437176534891	0.5156011076595813	-0.010643993111979277	-0.09928206254824606	0.5362578067728114	0.009772509722559719	-0.10170626215899331	0.5038052936066012	0.037233407073046676	-0.08796284821256142	0.5213662124676394	0.0007148997724379935	-0.09244266259021819	0.5179306480962438	-0.012292900509775051	-0.08044291137329465	0.5390804790390933	0.0008508408745953044	-0.08076954956713572	0.517198682059435	0.03273813550691573	-0.06897513411012396	0.5053443827298303	-0.02410719332220357	-0.05761587425520048	0.5208095559188057	-0.0281707667856963	-0.06372453932555652	0.5383527266767107	-0.016661434973831768	-0.06296003948684128	0.525898235744251	0.01446216960631419	-0.049652509868163136	0.4622830810018609	-0.023011742144276925	-0.051989820119430985
2	0.06666666666666676	0.538092736724745	-0.0028609264592449613	-0.1126079641627003	0.5200646555044297	-0.010829411869688887	-0.12441861731048415	0.4912730825752142	-0.018958109488557917	-0.11582852980902911	0.48001991457763704	-0.028655497283101572	-0.07376646994529273	0.4970480610310277	-0.0023241460744471976	-0.11539851339833662	0.5141739056448095	-0.0023278780651024844	-0.12128964506694231	0.5271779906441697	0.018792389338916804	-0.1253930474493726	0.4904070823258563	0.0327617716143056	-0.1090715048050559	0.498075671637612	-0.012482019714952441	-0.09996251754603605	0.5161014677216219	-0.010836814255156035	-0.09935921452701887	0.536625789750249	0.009727787086900475	-0.10165244955803995	0.5041171956319083	0.03708897773779085	-0.0878428704328599	0.5142112337565782	0.00011868431780148736	-0.09243569678749711	0.5182030471189981	-0.012726857593980623	-0.08043330206509877	0.5393040328102304	0.0004931959059527591	-0.08083150718474566	0.5175986112592567	0.03240264918400204	-0.06877404887917751	0.5054260740203722	-0.023272187921271503	-0.057816944946045445	0.5207138862723695	-0.02819618352770925	-0.06373615636442381	0.5382980860137062	-0.016752516474678902	-0.06292966840036834	0.5259146170318953	0.014438073944622043	-0.049713004060530225	0.4622830810018608	-0.023011742144276925	-0.051989820119430985
3	0.10000000000000014	0.5387339039311734	-0.0027491557323217064	-0.11227914118591162	0.5207103642479837	-0.010609127860302991	-0.12416917295356644	0.4918796019219309	-0.018695943870218557	-0.11567149382803804	0.47983694647365793	-0.0287036678096122	-0.07390176901080872	0.4970438135214488	-0.0021392210560554625	-0.1151235326169017	0.5142046795129219	-0.0024317603504806495	-0.12090445807775274	0.527550986551185	0.018451152757307465	-0.12512226100972806	0.4907921997354343	0.032659252247883463	-0.10898046449570623	0.49853637098177184	-0.013680015262580225	-0.10023900825176493	0.5164391463994913	-0.011064320264423055	-0.09943354439825186	0.536907011761167	0.00956717642087379	-0.10162839793799036	0.5044132280157402	0.0369231662115177	-0.0877737322444549	0.5070342634493438	-0.0029710728923578733	-0.09009848479611929	0.5183666405216342	-0.013129077002588252	-0.08043452171734194	0.5394540315528947	0.00011055779020796574	-0.08089711122013371	0.5179505640365243	0.032085730965727755	-0.06865333650937058	0.5054851806712897	-0.022807970506746877	-0.05793566105109321	0.520619509901748	-0.028300037865572558	-0.06374851533020728	0.5382518999846293	-0.0169318493711188	-0.06292685279626545	0.52597944145294	0.014331686916230879	-0.0497791719590405	0.462283081001861	-0.023011742144276925	-0.051989820119430985
4	0.13333333333333353	0.5391452505104758	-0.002807982031632572	-0.11208743371893995	0.5211028999868859	-0.010553835961179203	-0.12402373693585125	0.49223725808472474	-0.01856984733982514	-0.11557753784077812	0.479698602577173	-0.028757917870001592	-0.07399779112515834	0.4970573496113929	-0.0020717966837835444	-0.11496544434158737	0.5142362100626551	-0.0025734355700092193	-0.12067815928492948	0.5278378400459378	0.018129894937282565	-0.124965069676308	0.4911113016272193	0.03254373742481642	-0.10893264582578083	0.4988527379584805	-0.014599393617901635	-0.10046898218225325	0.5166358740282084	-0.011308833741378699	-0.09950343196369596	0.5371095467996062	0.009324112334258339	-0.10162941632148972	0.5046860291759974	0.03674801710006692	-0.08774442898597554	0.5034339554177003	-0.006324508553301911	-0.0874097188279154	0.5184393625482937	-0.013489818480715177	-0.08044580538149393	0.5395417770433293	-0.0002762398969080593	-0.08096486461633062	0.5182531148837743	0.0317951583942615	-0.06859800935294602	0.505523501277125	-0.022580281369484645	-0.05799812907412161	0.5205304913246276	-0.028459676950932433	-0.06376206499595594	0.5382140751440357	-0.01717079063908855	-0.06294724713886934	0.5260783786493628	0.014166455934106925	-0.04984818996669341	0.462283081001861	-0.023011742144276925	-0.05198982011943096
5	0.1666666666666669	0.5393598587223838	-0.002989253522581725	-0.11202182337225691	0.5212808345143232	-0.010619183837229818	-0.1239772843453007	0.4923858838186639	-0.018546229989178653	-0.11554735174768815	0.47959736890787474	-0.028812901166796023	-0.0740631457253089	0.49707541867480487	-0.0020968523327881128	-0.1148986934768714	0.5142596596490062	-0.0027322329829955194	-0.12058183992667554	0.5280442627747266	0.017842859140879908	-0.12490157762246373	0.49136437524417653	0.03242768780152727	-0.1089170626881357	0.4990088173121119	-0.015207768864558102	-0.10064507152656213	0.5167139804608826	-0.011551791745822437	-0.09956756088499363	0.5372410309093109	0.009032410421445647	-0.10165091659747114	0.5049281407356739	0.036575620312553125	-0.08774420460214721	0.5021680089910376	-0.008280043953561078	-0.08592238088394535	0.5184394028098255	-0.013800164618018695	-0.08046619072562572	0.5395778597058187	-0.0006463031122893037	-0.08103324146790594	0.5185043543106315	0.0315387887972578	-0.06859346401278138	0.5055474619895772	-0.022510218749844824	-0.05802175686835764	0.5204510846863064	-0.028653685754094105	-0.06377847847715884	0.5381846167168588	-0.017441754854918945	-0.06298698227786628	0.5261976860742515	0.01396490736018463	-0.0499172266077815	0.4622830810018609	-0.023011742144276925	-0.051989820119430985
